<svg width="522" height="96" xmlns="http://www.w3.org/2000/svg" xmlns:xlink="http://www.w3.org/1999/xlink" xml:space="preserve" overflow="hidden"><g transform="translate(-366 -403)"><path d="M456.486 25.1921 456.486 21.0936C478.576 22.3503 496.315 33.7277 496.315 47.8682 496.315 62.0088 478.494 71.883 456.486 70.4591L456.486 60.3345C472.468 61.3375 485.938 55.3974 485.938 45.105 485.938 34.8126 472.465 26.1952 456.486 25.1921ZM456.486 94.8915 456.486 83.4282C484.853 85.1845 508.364 72.6329 508.364 54.0582 508.364 35.4834 484.852 18.9977 456.486 17.2414L456.486 12.2218C491.882 14.4816 520.581 32.9738 520.581 56.2354 520.581 79.4969 491.882 97.1507 456.486 94.8943L456.486 94.8915ZM456.486 70.4591 456.486 74.5576C434.395 73.3009 416.656 61.9235 416.656 47.7829 416.656 33.6423 434.477 23.7681 456.486 25.1921L456.486 35.3167C440.503 34.3136 427.034 40.2538 427.034 50.5462 427.034 60.8386 440.506 69.456 456.486 70.4591ZM456.486 0.755783 456.486 12.219C428.119 10.4627 404.607 23.0143 404.607 41.5891 404.607 60.1639 428.119 76.6495 456.486 78.4058L456.486 83.4254C421.09 81.1657 392.391 62.6734 392.391 39.4118 392.391 16.1503 421.093-1.5006 456.486 0.755777Z" transform="matrix(1 0 0 1.0002 366 403)"/><path d="M1.42237 16.2148 13.4879 16.2148 13.4879 72.1676 41.9879 72.1676 41.9879 81.7853 1.4218 81.7853 1.4218 16.2148 1.42237 16.2148Z" transform="matrix(1 0 0 1.0002 366 403)"/><path d="M76.8682 54.1547 76.8682 51.8815C76.8682 46.2871 73.8075 43.4896 66.3777 43.4896 61.5708 43.4896 56.5854 44.5376 51.4288 46.9853L51.4288 37.6314C56.2357 35.7073 61.7448 34.5707 67.7781 34.5707 81.2407 34.5707 88.0609 40.6035 88.0609 50.5703L88.0609 81.7792 76.8716 81.7792 76.8716 74.2601C73.5504 79.7692 67.7809 82.652 61.2245 82.652 51.3463 82.652 46.5361 76.3588 46.5361 69.2747 46.5361 59.3079 55.5408 54.1513 67.4318 54.1513L76.8749 54.1513 76.8682 54.1547ZM76.8682 61.937 69.3492 61.937C61.8301 61.937 57.7215 64.3848 57.7215 69.1064 57.7215 72.6913 60.0806 74.5262 64.1033 74.5262 70.3112 74.5267 76.4298 69.9797 76.8682 61.937Z" transform="matrix(1 0 0 1.0002 366 403)"/><path d="M148.906 82.6548C129.76 82.6548 114.722 69.4521 114.722 48.9981 114.722 28.5441 129.76 15.3415 148.906 15.3415 155.552 15.3415 161.581 16.8272 166.652 19.4501L166.652 30.4649C163.331 27.5787 156.25 24.6954 149.08 24.6954 137.19 24.6954 127.575 33.5256 127.575 48.9981 127.575 64.4706 137.193 73.3009 149.08 73.3009 156.424 73.3009 163.769 70.4147 167.175 67.5314L167.175 78.5461C161.93 81.169 155.722 82.6548 148.902 82.6548L148.906 82.6548Z" transform="matrix(1 0 0 1.0002 366 403)"/><path d="M203.372 54.1547 203.372 51.8815C203.372 46.2871 200.312 43.4896 192.882 43.4896 188.075 43.4896 183.09 44.5376 177.933 46.9853L177.933 37.6314C182.74 35.7073 188.249 34.5707 194.282 34.5707 207.744 34.5707 214.565 40.6035 214.565 50.5703L214.565 81.7792 203.375 81.7792 203.375 74.2601C200.054 79.7692 194.281 82.652 187.725 82.652 177.847 82.652 173.036 76.3588 173.036 69.2747 173.036 59.3079 182.041 54.1513 193.932 54.1513L203.375 54.1513 203.372 54.1547ZM203.372 61.937 195.853 61.937C188.334 61.937 184.226 64.3848 184.226 69.1064 184.226 72.6913 186.585 74.5262 190.608 74.5262 196.816 74.5267 202.935 69.9797 203.372 61.937Z" transform="matrix(1 0 0 1.0002 366 403)"/><path d="M224.614 16.2148 236.68 16.2148 236.68 27.5787 224.614 27.5787 224.614 16.2148ZM225.053 35.4463 236.242 35.4463 236.242 81.7814 225.053 81.7814 225.053 35.4463Z" transform="matrix(1 0 0 1.0002 366 403)"/><path d="M258.884 82.9186C253.553 82.9186 248.482 82.0458 243.935 80.4708L243.935 71.2022C248.831 73.2122 253.813 74.3488 258.884 74.3488 265.526 74.3488 267.54 72.5134 267.54 69.891 267.54 60.8863 244.809 62.8104 244.809 48.0366 244.809 40.2543 250.927 34.5741 263.256 34.5741 267.803 34.5741 272.35 35.3616 276.195 36.7586L276.195 46.0272C271.997 44.2777 267.714 43.1411 263.431 43.1411 257.662 43.1411 256.001 44.9765 256.001 46.9006 256.001 54.1558 278.732 53.1079 278.732 68.755 278.732 77.3214 272.175 82.9163 258.887 82.9163L258.884 82.9186Z" transform="matrix(1 0 0 1.0002 366 403)"/><path d="M298.577 82.9186C293.246 82.9186 288.175 82.0458 283.628 80.4708L283.628 71.2022C288.525 73.2122 293.507 74.3488 298.577 74.3488 305.22 74.3488 307.232 72.5134 307.232 69.891 307.232 60.8863 284.502 62.8104 284.502 48.0366 284.502 40.2543 290.62 34.5741 302.949 34.5741 307.496 34.5741 312.043 35.3616 315.889 36.7586L315.889 46.0272C311.691 44.2777 307.408 43.1411 303.124 43.1411 297.355 43.1411 295.695 44.9765 295.695 46.9006 295.695 54.1558 318.426 53.1079 318.426 68.755 318.426 77.3214 311.869 82.9163 298.581 82.9163L298.577 82.9186Z" transform="matrix(1 0 0 1.0002 366 403)"/><path d="M335.555 61.937C336.777 69.5414 342.635 73.7393 350.767 73.7393 356.186 73.7393 361.257 71.9897 366.065 69.1922L366.065 79.0704C360.819 81.6041 355.399 82.6553 349.106 82.6553 333.456 82.6553 323.927 73.3868 323.927 58.7876 323.927 44.1884 333.371 34.5707 346.484 34.5707 359.597 34.5707 368.164 43.4863 368.164 57.5623 368.164 58.9594 368.075 60.096 367.9 61.9348L335.555 61.9348 335.555 61.937ZM335.555 54.1547 356.711 54.1547C355.574 46.1979 351.554 42.7021 346.309 42.7021 340.8 42.7016 336.691 46.2865 335.555 54.1547Z" transform="matrix(1 0 0 1.0002 366 403)"/></g></svg>