<svg width="930" height="171" viewBox="0 0 930 171" xmlns="http://www.w3.org/2000/svg" xml:space="preserve" version="1.1">
 <g>
  <g>
   <g>
    <path d="m813.27911,44.88251l0,-7.302c39.35693,2.239 70.961,22.509 70.961,47.702s-31.75098,42.785 -70.961,40.24802l0,-18.03801c28.47491,1.787 52.47198,-8.79599 52.47198,-27.133s-24.00305,-33.69 -52.47198,-35.47701zm0,124.177l0,-20.423c50.539,3.129 92.42694,-19.23299 92.42694,-52.32599s-41.88892,-62.464 -92.42694,-65.59302l0,-8.94299c63.06195,4.026 114.19189,36.972 114.19189,78.41499s-51.12994,72.895 -114.19189,68.87502l0,-0.005zm0,-43.52899l0,7.302c-39.35706,-2.23901 -70.96106,-22.509 -70.96106,-47.702s31.75006,-42.785 70.96106,-40.24802l0,18.03801c-28.47504,-1.787 -52.47198,8.79599 -52.47198,27.133s24.00293,33.69 52.47198,35.47701zm0,-124.18401l0,20.423c-50.539,-3.129 -92.42706,19.233 -92.42706,52.326s41.88904,62.46399 92.42706,65.59299l0,8.94299c-63.06201,-4.026 -114.19202,-36.97198 -114.19202,-78.41499s51.13605,-72.88999 114.19202,-68.87z"/>
    <path d="m2.5341,28.88852l21.496,0l0,99.68599l50.776,0l0,17.13499l-72.273,0l0,-116.82098l0.001,0z"/>
    <path d="m136.9491,96.48251l0,-4.05c0,-9.967 -5.453,-14.951 -18.69,-14.951c-8.564,0 -17.446,1.867 -26.633,6.22801l0,-16.66501c8.564,-3.42799 18.379,-5.453 29.12799,-5.453c23.98502,0 36.13602,10.748 36.13602,28.505l0,55.60201l-19.93501,0l0,-13.39601c-5.91699,9.81502 -16.19598,14.951 -27.877,14.951c-17.599,0 -26.16901,-11.21199 -26.16901,-23.83299c0,-17.757 16.043,-26.944 37.22801,-26.944l16.82399,0l-0.01199,0.006zm0,13.86501l-13.396,0c-13.396,0 -20.716,4.36101 -20.716,12.77301c0,6.38699 4.203,9.65599 11.37001,9.65599c11.06,0.00099 21.961,-8.10001 22.74199,-22.429z"/>
    <path d="m265.29211,147.25851c-34.11099,0 -60.90201,-23.522 -60.90201,-59.963c0,-36.44101 26.79102,-59.963 60.90201,-59.963c11.84,0 22.582,2.64699 31.616,7.31999l0,19.62401c-5.91699,-5.14201 -18.53198,-10.27901 -31.30499,-10.27901c-21.185,0 -38.314,15.73199 -38.314,43.298c0,27.56599 17.13498,43.29799 38.314,43.29799c13.08398,0 26.16901,-5.142 32.23801,-10.27899l0,19.62399c-9.345,4.673 -20.405,7.32001 -32.556,7.32001l0.00699,0z"/>
    <path d="m362.33011,96.48251l0,-4.05c0,-9.967 -5.453,-14.951 -18.69,-14.951c-8.564,0 -17.44601,1.867 -26.633,6.22801l0,-16.66501c8.564,-3.42799 18.379,-5.453 29.12701,-5.453c23.98499,0 36.13599,10.748 36.13599,28.505l0,55.60201l-19.935,0l0,-13.39601c-5.91699,9.81502 -16.202,14.951 -27.883,14.951c-17.599,0 -26.16901,-11.21199 -26.16901,-23.83299c0,-17.757 16.043,-26.944 37.228,-26.944l16.82401,0l-0.005,0.006zm0,13.86501l-13.396,0c-13.396,0 -20.716,4.36101 -20.716,12.77301c0,6.38699 4.203,9.65599 11.37,9.65599c11.061,0.00099 21.96201,-8.10001 22.742,-22.429z"/>
    <path d="m400.17508,28.88852l21.49603,0l0,20.246l-21.49603,0l0,-20.246zm0.78101,34.263l19.935,0l0,82.55099l-19.935,0l0,-82.55099z"/>
    <path d="m461.23013,147.72852c-9.49799,0 -18.53198,-1.55499 -26.633,-4.36099l0,-16.51302c8.72302,3.58101 17.599,5.606 26.633,5.606c11.83398,0 15.42102,-3.27 15.42102,-7.942c0,-16.043 -40.49805,-12.61499 -40.49805,-38.93599c0,-13.86501 10.901,-23.985 32.867,-23.985c8.10101,0 16.20203,1.403 23.052,3.892l0,16.513c-7.479,-3.117 -15.10999,-5.142 -22.74097,-5.142c-10.27899,0 -13.237,3.26999 -13.237,6.698c0,12.92599 40.49799,11.05899 40.49799,38.93599c0,15.26201 -11.68201,25.23001 -35.35602,25.23001l-0.00598,0.004z"/>
    <path d="m531.94812,147.72852c-9.49805,0 -18.53204,-1.55499 -26.63303,-4.36099l0,-16.51302c8.72299,3.58101 17.59897,5.606 26.63303,5.606c11.83392,0 15.41992,-3.27 15.41992,-7.942c0,-16.043 -40.49698,-12.61499 -40.49698,-38.93599c0,-13.86501 10.89999,-23.985 32.86606,-23.985c8.10101,0 16.20197,1.403 23.05292,3.892l0,16.513c-7.479,-3.117 -15.10999,-5.142 -22.74091,-5.142c-10.27808,0 -13.23706,3.26999 -13.23706,6.698c0,12.92599 40.49799,11.05899 40.49799,38.93599c0,15.26201 -11.68091,25.23001 -35.35492,25.23001l-0.00702,0.004z"/>
    <path d="m597.82715,110.34752c2.17798,13.548 12.61493,21.02701 27.10193,21.02701c9.65601,0 18.69006,-3.117 27.25507,-8.101l0,17.599c-9.34497,4.51401 -19.00201,6.38699 -30.21307,6.38699c-27.88293,0 -44.85901,-16.513 -44.85901,-42.52299s16.8241,-43.145 40.18701,-43.145s38.62506,15.884 38.62506,40.96201c0,2.489 -0.159,4.51399 -0.46997,7.78999l-57.62701,0l0,0.004zm0,-13.86501l37.69196,0c-2.02496,-14.17599 -9.18695,-20.40401 -18.53192,-20.40401c-9.81506,-0.00099 -17.13513,6.386 -19.16003,20.40401z"/>
   </g>
  </g>
 </g>
</svg>
